<svg width="30" height="32" viewBox="0 0 30 32" fill="none" xmlns="http://www.w3.org/2000/svg">
<path fill-rule="evenodd" clip-rule="evenodd" d="M14.9814 0C18.9851 0 22.2925 3.05065 22.7003 6.95233L22.8141 6.95367C25.0351 6.95367 27.7355 8.42871 28.6469 12.5659L29.8554 21.92C30.2889 24.939 29.7467 27.3607 28.241 29.0976C26.743 30.8254 24.3719 31.7398 21.3835 31.7398H8.59679C5.31433 31.7398 3.02748 30.9357 1.60452 29.283C0.175428 27.6257 -0.302466 25.1397 0.184619 21.8955L1.37323 12.6654C2.1544 8.4333 5.01105 6.95367 7.22284 6.95367C7.41378 5.19293 8.20773 3.51789 9.46726 2.26234C10.9147 0.824062 12.9105 0 14.9493 0H14.9814ZM22.8141 9.25124H7.22284C6.54735 9.25124 4.28961 9.52388 3.64169 13.0223L2.45921 22.2126C2.07475 24.7905 2.3719 26.6561 3.34454 27.785C4.30493 28.9001 6.02351 29.4423 8.59679 29.4423H21.3835C22.9888 29.4423 25.1806 29.1222 26.504 27.5935C27.5548 26.3819 27.9163 24.5776 27.5793 22.2294L26.3861 12.9595C25.8776 10.6757 24.5358 9.25124 22.8141 9.25124ZM19.4487 13.5157C20.0828 13.5157 20.6327 14.0303 20.6327 14.6645C20.6327 15.2986 20.1533 15.8132 19.5191 15.8132H19.4487C18.8145 15.8132 18.2999 15.2986 18.2999 14.6645C18.2999 14.0303 18.8145 13.5157 19.4487 13.5157ZM10.5186 13.5157C11.1528 13.5157 11.7026 14.0303 11.7026 14.6645C11.7026 15.2986 11.2217 15.8132 10.5876 15.8132H10.5186C9.8845 15.8132 9.36984 15.2986 9.36984 14.6645C9.36984 14.0303 9.8845 13.5157 10.5186 13.5157ZM14.9768 2.29757H14.9539C13.5125 2.29757 12.1079 2.87809 11.0893 3.89055C10.2596 4.71655 9.71696 5.80243 9.54141 6.95296L20.3848 6.95338C19.9912 4.32154 17.7154 2.29757 14.9768 2.29757Z" fill="black"/>
</svg>
