<svg width="25" height="25" viewBox="0 0 25 25" fill="none" xmlns="http://www.w3.org/2000/svg">
<g clip-path="url(#clip0_11_166)">
<path d="M25 12.777C25 11.7521 24.9149 11.0043 24.7307 10.2287H12.7551V14.8543H19.7845C19.6429 16.0038 18.8775 17.735 17.1768 18.8983L17.153 19.0531L20.9395 21.9196L21.2018 21.9452C23.6111 19.7708 25 16.5716 25 12.777Z" fill="#4285F4"/>
<path d="M12.7551 24.9643C16.1989 24.9643 19.09 23.8563 21.2018 21.9452L17.1768 18.8983C16.0998 19.6323 14.6541 20.1447 12.7551 20.1447C9.3821 20.1447 6.51931 17.9705 5.4988 14.9652L5.34922 14.9776L1.41199 17.9552L1.3605 18.095C3.45799 22.1667 7.76639 24.9643 12.7551 24.9643Z" fill="#34A853"/>
<path d="M5.49881 14.9652C5.22954 14.1896 5.07371 13.3586 5.07371 12.5C5.07371 11.6413 5.22954 10.8104 5.48464 10.0348L5.47751 9.86966L1.49094 6.84424L1.36051 6.90487C0.496037 8.59449 0 10.4919 0 12.5C0 14.5081 0.496037 16.4054 1.36051 18.095L5.49881 14.9652Z" fill="#FBBC05"/>
<path d="M12.7551 4.8552C15.1502 4.8552 16.7658 5.86618 17.687 6.71104L21.2868 3.27642C19.076 1.26829 16.1989 0.0357056 12.7551 0.0357056C7.76639 0.0357056 3.45799 2.83322 1.3605 6.90486L5.48464 10.0348C6.51931 7.02955 9.3821 4.8552 12.7551 4.8552Z" fill="#EB4335"/>
</g>
<defs>
<clipPath id="clip0_11_166">
<rect width="25" height="25" fill="white"/>
</clipPath>
</defs>
</svg>
