<svg width="17" height="16" viewBox="0 0 17 16" fill="none" xmlns="http://www.w3.org/2000/svg">
<path d="M5.23335 0.000128887C5.75835 0.0160953 6.26668 0.107762 6.75918 0.275262H6.80835C6.84168 0.291095 6.86668 0.308595 6.88335 0.324429C7.06751 0.383595 7.24168 0.450262 7.40835 0.541929L7.72501 0.683595C7.85001 0.750262 8.00001 0.874429 8.08335 0.925262C8.16668 0.974429 8.25835 1.02526 8.33335 1.08276C9.25918 0.375262 10.3833 -0.00807139 11.5417 0.000128887C12.0675 0.000128887 12.5925 0.0744286 13.0917 0.241929C16.1675 1.24193 17.2758 4.61693 16.35 7.56693C15.825 9.07443 14.9667 10.4503 13.8425 11.5744C12.2333 13.1328 10.4675 14.5161 8.56668 15.7078L8.35835 15.8336L8.14168 15.6994C6.23418 14.5161 4.45835 13.1328 2.83418 11.5661C1.71751 10.4419 0.858347 9.07443 0.325014 7.56693C-0.616653 4.61693 0.491681 1.24193 3.60085 0.224429C3.84251 0.141095 4.09168 0.0827619 4.34168 0.0502619H4.44168C4.67585 0.0160953 4.90835 0.000128887 5.14168 0.000128887H5.23335ZM12.6583 2.6336C12.3167 2.5161 11.9417 2.70026 11.8167 3.05026C11.7 3.40026 11.8833 3.7836 12.2333 3.90776C12.7675 4.10776 13.125 4.63359 13.125 5.21609V5.24193C13.1092 5.43276 13.1667 5.61693 13.2833 5.75859C13.4 5.90026 13.575 5.98276 13.7583 6.00026C14.1 5.9911 14.3917 5.71693 14.4167 5.3661V5.26693C14.4417 4.09943 13.7342 3.04193 12.6583 2.6336Z" fill="#232323"/>
</svg>
