<svg width="30" height="30" viewBox="0 0 30 30" fill="none" xmlns="http://www.w3.org/2000/svg">
<path fill-rule="evenodd" clip-rule="evenodd" d="M14.4177 0C22.3675 0 28.834 6.32381 28.834 14.0983C28.834 17.7662 27.3946 21.1116 25.0391 23.6223L29.6739 28.1454C30.1077 28.5696 30.1092 29.2559 29.6754 29.68C29.4593 29.8943 29.1736 30 28.8893 30C28.6066 30 28.3223 29.8943 28.1047 29.6829L23.414 25.1085C20.9464 27.041 17.8177 28.198 14.4177 28.198C6.46791 28.198 0 21.8727 0 14.0983C0 6.32381 6.46791 0 14.4177 0ZM14.4177 2.17164C7.69221 2.17164 2.22062 7.5211 2.22062 14.0983C2.22062 20.6754 7.69221 26.0263 14.4177 26.0263C21.1417 26.0263 26.6133 20.6754 26.6133 14.0983C26.6133 7.5211 21.1417 2.17164 14.4177 2.17164Z" fill="black"/>
</svg>
