<svg width="28" height="23" viewBox="0 0 28 23" fill="none" xmlns="http://www.w3.org/2000/svg">
<path fill-rule="evenodd" clip-rule="evenodd" d="M14.0037 0C19.794 0.00428438 24.9935 4.14443 27.9139 11.0766C28.0287 11.3465 28.0287 11.6521 27.9139 11.922C24.9949 18.8556 19.794 22.9957 14.0037 23H13.9953C8.20495 22.9957 3.00541 18.8556 0.0850489 11.922C-0.0283496 11.6521 -0.0283496 11.3465 0.0850489 11.0766C3.00541 4.14443 8.20635 0.00428438 13.9953 0H14.0037ZM13.9995 2.14219C9.18913 2.14362 4.80159 5.63254 2.19762 11.4993C4.80159 17.3675 9.18773 20.8564 13.9995 20.8578C18.8112 20.8564 23.1974 17.3675 25.8013 11.4993C23.1974 5.63254 18.8112 2.14362 13.9995 2.14219ZM13.9991 5.91359C17.0188 5.91359 19.4758 8.41996 19.4758 11.5004C19.4758 14.5795 17.0188 17.0844 13.9991 17.0844C10.9793 17.0844 8.52372 14.5795 8.52372 11.5004C8.52372 8.41996 10.9793 5.91359 13.9991 5.91359ZM13.9991 8.05578C12.1371 8.05578 10.6237 9.60102 10.6237 11.5004C10.6237 13.3984 12.1371 14.9422 13.9991 14.9422C15.861 14.9422 17.3758 13.3984 17.3758 11.5004C17.3758 9.60102 15.861 8.05578 13.9991 8.05578Z" fill="black"/>
</svg>
