<svg width="25" height="27" viewBox="0 0 25 27" fill="none" xmlns="http://www.w3.org/2000/svg">
<path d="M20.3892 13.92C20.3767 11.7617 21.412 10.1327 23.5075 8.93302C22.335 7.35107 20.5638 6.4807 18.2251 6.31016C16.0112 6.1455 13.5914 7.5275 12.7058 7.5275C11.7703 7.5275 9.62497 6.36897 7.94111 6.36897C4.46113 6.4219 0.762878 8.98595 0.762878 14.2023C0.762878 15.7431 1.06223 17.3348 1.66094 18.9775C2.45921 21.1358 5.34048 26.4286 8.34648 26.3404C9.91809 26.3051 11.0282 25.2877 13.0738 25.2877C15.057 25.2877 16.086 26.3404 17.8385 26.3404C20.8694 26.2992 23.4763 21.4886 24.2371 19.3245C20.1709 17.5191 20.3892 14.0317 20.3892 13.92ZM16.8593 4.26362C18.5619 2.35822 18.406 0.623371 18.3561 0C16.8531 0.082332 15.1131 0.964461 14.1215 2.05242C13.0301 3.21683 12.3877 4.65764 12.5249 6.28076C14.1527 6.39837 15.637 5.61034 16.8593 4.26362Z" fill="black"/>
</svg>
